<svg xmlns="http://www.w3.org/2000/svg" viewBox="0 0 1800 1300" fill="none">
  <g stroke="#fff" stroke-width="0.85" stroke-linecap="round">
    <path d="M-180 182C66 98 286 252 552 206C826 156 1002 16 1278 70C1554 124 1754 282 1962 220" stroke-opacity="0.022"/>
    <path d="M-188 304C68 228 306 382 578 340C850 298 1046 166 1328 214C1588 258 1786 416 2010 356" stroke-opacity="0.02"/>
    <path d="M-174 436C90 364 330 512 608 474C886 438 1084 306 1368 350C1618 390 1832 550 2048 498" stroke-opacity="0.019"/>
    <path d="M-150 568C120 496 360 640 642 610C922 582 1128 446 1412 488C1654 524 1868 688 2082 642" stroke-opacity="0.018"/>
    <path d="M-122 702C148 634 390 772 678 748C962 724 1170 588 1460 626C1700 658 1914 824 2112 786" stroke-opacity="0.018"/>
    <path d="M-80 846C190 786 432 910 726 892C1004 874 1216 738 1506 774C1742 804 1960 962 2144 934" stroke-opacity="0.017"/>
    <path d="M-36 986C232 934 476 1048 776 1036C1056 1024 1270 890 1564 922C1792 946 2016 1092 2176 1072" stroke-opacity="0.016"/>
  </g>
</svg>
