<svg xmlns="http://www.w3.org/2000/svg" viewBox="0 0 1600 1200" fill="none">
  <g stroke="#fff" stroke-width="0.9" stroke-linecap="round">
    <path d="M-120 134C68 54 228 220 430 166C650 108 792-22 1018 24C1236 68 1396 230 1718 146" stroke-opacity="0.06"/>
    <path d="M-128 206C70 132 244 284 458 236C670 186 826 70 1048 112C1264 154 1428 316 1738 230" stroke-opacity="0.05"/>
    <path d="M-130 280C74 210 256 348 474 306C688 264 846 150 1080 188C1306 224 1458 390 1764 306" stroke-opacity="0.048"/>
    <path d="M-126 356C82 292 278 420 504 384C720 348 888 236 1122 272C1338 304 1494 470 1780 394" stroke-opacity="0.055"/>
    <path d="M-120 430C96 366 290 496 524 462C748 430 922 316 1164 346C1380 372 1548 546 1812 482" stroke-opacity="0.05"/>
    <path d="M-104 504C118 438 318 568 558 538C782 510 962 390 1200 426C1416 458 1584 632 1844 568" stroke-opacity="0.047"/>
    <path d="M-82 582C146 512 350 642 594 616C824 592 1014 472 1250 506C1466 534 1632 706 1882 640" stroke-opacity="0.055"/>
    <path d="M-56 664C176 594 386 718 634 696C862 676 1052 562 1292 588C1504 612 1674 778 1908 724" stroke-opacity="0.05"/>
    <path d="M-24 746C212 680 424 798 674 782C904 768 1102 656 1342 678C1552 700 1722 860 1938 818" stroke-opacity="0.046"/>
    <path d="M22 836C258 780 480 892 732 880C968 870 1162 760 1400 782C1602 798 1778 952 1974 920" stroke-opacity="0.052"/>
    <path d="M-184 904C78 820 276 966 520 936C786 904 940 782 1188 826C1438 870 1592 1014 1880 934" stroke-opacity="0.043"/>
    <path d="M-142 1012C118 942 314 1068 562 1040C816 1012 972 900 1228 936C1470 972 1628 1106 1914 1042" stroke-opacity="0.04"/>
  </g>
</svg>
